# xmcd CD database file generated by OrangeCD 6.5
#
# Track frame offsets:
#	182
#	12795
#	25152
#	36745
#	48105
#	61310
#	73002
#	84720
#	95177
#	108040
#	118197
#	127850
#	141420
#	154555
#	164247
#	176480
#	189135
#	199095
#
# Disc length: 2835 seconds
#
# Revision: 1
# Processed by: cddbd v1.5.2PL0 Copyright (c) Steve Scherf et al.
# Submitted via: OrangeCD 6.5
#
DISCID=f80b1112
DTITLE=Jimmy McCracklin - San Francisco Blues
DYEAR=1996
DGENRE=Contemporary Blues
TTITLE0=The Walk
TTITLE1=I'm To Blame
TTITLE2=Minnie Lee
TTITLE3=Take Care Of Yourself
TTITLE4=Suffer
TTITLE5=Get Tough
TTITLE6=Later On
TTITLE7=Everybody Rock
TTITLE8=Come On
TTITLE9=I Know
TTITLE10=Country Baby
TTITLE11=He Knows The Rules
TTITLE12=The Wobble
TTITLE13=I'm Through
TTITLE14=Hurt Me
TTITLE15=I'll Take The Blame
TTITLE16=One Track Love
TTITLE17=Trottin'
EXTD=
EXTT0=
EXTT1=
EXTT2=
EXTT3=
EXTT4=
EXTT5=
EXTT6=
EXTT7=
EXTT8=
EXTT9=
EXTT10=
EXTT11=
EXTT12=
EXTT13=
EXTT14=
EXTT15=
EXTT16=
EXTT17=
PLAYORDER=
